<svg xmlns="http://www.w3.org/2000/svg" viewBox="0 0 87.51 36.03"><defs><style>.cls-1{fill:#fff;}</style></defs><g id="Layer_2" data-name="Layer 2"><g id="Layer_1-2" data-name="Layer 1"><path class="cls-1" d="M28.68,0a10.51,10.51,0,1,0,10.5,10.5A10.51,10.51,0,0,0,28.68,0Zm5.1,3.53a1.95,1.95,0,1,1-1.94,2A1.94,1.94,0,0,1,33.78,3.53Zm-5.1-1.95a2,2,0,1,1-1.94,1.95A2,2,0,0,1,28.68,1.58ZM20,10.5a2,2,0,1,1,1.95,2A2,2,0,0,1,20,10.5Zm3.9,7a1.95,1.95,0,1,1,1.94-1.94A1.94,1.94,0,0,1,23.88,17.48Zm0-10.06a1.95,1.95,0,1,1,1.94-1.94A1.94,1.94,0,0,1,23.88,7.42Zm4.8,12a1.95,1.95,0,1,1,1.94-1.95A1.94,1.94,0,0,1,28.68,19.43Zm0-6.47a2.46,2.46,0,1,1,2.45-2.46A2.46,2.46,0,0,1,28.68,13ZM33.78,17a1.94,1.94,0,1,1,1.94-1.94A1.94,1.94,0,0,1,33.78,17Zm1.94-4.8a1.94,1.94,0,1,1,2-1.94A1.94,1.94,0,0,1,35.72,12.22Z"/><path class="cls-1" d="M49.68,7a7.05,7.05,0,1,0,7,7.05A7,7,0,0,0,49.68,7ZM53.1,9.34a1.31,1.31,0,1,1-1.3,1.31A1.3,1.3,0,0,1,53.1,9.34ZM49.68,8a1.31,1.31,0,1,1-1.31,1.31A1.31,1.31,0,0,1,49.68,8Zm-5.84,6a1.31,1.31,0,1,1,1.31,1.31A1.31,1.31,0,0,1,43.84,14Zm2.61,4.68a1.31,1.31,0,1,1,1.31-1.3A1.3,1.3,0,0,1,46.45,18.7Zm0-6.75a1.31,1.31,0,1,1,1.31-1.3A1.3,1.3,0,0,1,46.45,12ZM49.68,20A1.3,1.3,0,1,1,51,18.7,1.3,1.3,0,0,1,49.68,20Zm0-4.34A1.65,1.65,0,1,1,51.32,14,1.64,1.64,0,0,1,49.68,15.66Zm3.42,2.73a1.3,1.3,0,1,1,1.3-1.3A1.3,1.3,0,0,1,53.1,18.39Zm1.3-3.22a1.31,1.31,0,1,1,1.31-1.3A1.3,1.3,0,0,1,54.4,15.17Z"/><path class="cls-1" d="M0,34.84,4.93,23.45H7.4l4.8,11.39H9.84L9.09,33H3.31l-.78,1.81ZM4.14,31.1H8.28L7.39,29,6.17,26.05c-.4,1.17-.77,2.16-1.13,3Z"/><path class="cls-1" d="M13.67,34.84V23.45h4.87a5.34,5.34,0,0,1,3.76,1.24,4.13,4.13,0,0,1,1.34,3.16A4.08,4.08,0,0,1,23.07,30a4.25,4.25,0,0,1-1.58,1.57l2.38,3.3h-3L19.1,32.2c-.38,0-.93,0-1.65,0H16.13v2.6Zm2.46-4.71h2.52a2.42,2.42,0,0,0,1.76-.65,2.19,2.19,0,0,0,.66-1.63,2.25,2.25,0,0,0-.65-1.64,2.39,2.39,0,0,0-1.76-.65H16.13Z"/><path class="cls-1" d="M25.18,29.15A5.64,5.64,0,0,1,26.9,25a5.88,5.88,0,0,1,4.31-1.7A6,6,0,0,1,35,24.51l-1.42,1.67a3.53,3.53,0,0,0-2.16-.67,3.45,3.45,0,0,0-2.63,1.06,3.83,3.83,0,0,0,0,5.16,3.23,3.23,0,0,0,2.49,1.07,3.67,3.67,0,0,0,2.55-.91l1.49,1.69A5.91,5.91,0,0,1,31.21,35a5.84,5.84,0,0,1-4.31-1.7A5.65,5.65,0,0,1,25.18,29.15Z"/><path class="cls-1" d="M36.76,34.84V23.45h2.47V27.9h4.86V23.45h2.46V34.84H44.09V30H39.23v4.83Z"/><path class="cls-1" d="M49,34.84V23.45h2.46V34.84Z"/><path class="cls-1" d="M57.31,34.84,52.88,23.45h2.51l2.25,5.77.93,2.84c.41-1.29.72-2.24,1-2.84l2.24-5.77h2.52L59.86,34.84Z"/><path class="cls-1" d="M65.69,34.84V23.45h9v2.11H68.15v2.32h6.19V30H68.15v2.76H74.9v2.11Z"/><polygon class="cls-1" points="77.74 25.38 77.74 31.66 87.51 36.03 87.51 21.35 77.74 25.38"/></g></g></svg>